<?xml version="1.0" encoding="UTF-8"?>
<svg xmlns="http://www.w3.org/2000/svg" viewBox="140 150 800 800">
  <path fill="#e95c25" d="M672.2,800.5c-9.9,0-18.9-5.3-23.9-14.5-21.9-40.6-67.9-99.4-98.3-96.9-17.1,1.5-35.2,27.5-49.8,71.5-4.6,16.6-21.1,28-38.9,26.7h-1.5c-20.5-1.7-36-19.7-34.5-40.2.7-9.8,3-23.7,5.6-39.7,6.3-38.5,15.7-95.4,9.5-140.7l-7.1-1.3c-55.8-10.5-132.2-24.8-183.8-81.1-41-44.8-63.4-85.1-63.6-85.5l-19.6-34.9,39.8-5.6c78.3-11.1,141.8,6.9,188.8,53.4,31.6,31.3,54.9,74.8,69.4,129.4h.2c43.8,0,88.1-17.9,131.8-53.2,71-57.4,112.7-140.7,130.5-176.3,9.8-19.6,18.3-36.5,40.4-31.2,10.6,2.5,21.5,12.1,21.5,28.1s4.6,107.2,96.3,107.9,24.6,8.7,27.7,21.1c5.3,21.6-11.7,30.7-26.7,38.6-125,66-188.3,148.6-188.3,245.5l2.1,50.2c.5,13.1-7.6,24.2-20.2,27.6-2.5.7-5.1,1-7.6,1h.2ZM671.8,773.1h0c0,0,14.1-.6,14.1-.6l-14.1.6h0ZM552,660.9c55.5,0,109.6,91.1,119.6,108.9l-2-47.5c0-108.7,68.4-199.7,203.3-271,3.9-2.1,8.5-4.5,11.1-6.3-97.4-1.1-123.4-86.1-123.4-136.4-2.2,3.1-5.5,9.7-8.5,15.6-18.7,37.3-62.3,124.5-138,185.7-47.4,38.3-96,58.3-144.9,59.5,5.2,48.2-4.1,104.3-10.4,142.8-2.5,15.3-4.7,28.5-5.3,37.1-.4,5.1,3.5,9.5,8.6,9.9h1.5c4.4.5,8.5-2.4,9.7-6.7,19.3-58.2,44.2-88.7,74.3-91.3,1.5,0,2.9-.2,4.4-.2h0ZM211.3,386.2c3.6,6.3,24.7,41.4,59.2,79.2,43.9,48,109.4,61.4,163.4,71.5-13.2-44.3-32.9-79.6-58.7-105.1-40.2-39.7-95.3-55.1-163.9-45.6h0ZM760.5,307.6h0Z"/>
</svg>
